<?xml version="1.0" encoding="utf-8"?>
<svg baseProfile="tiny" height="240" viewBox="-0.251 -0.25 247 240" width="247" xml:space="preserve" xmlns="http://www.w3.org/2000/svg"><path d="M78.923 210.398c-8.88 1.26-15.54-6.66-15.84-13.681-.279-6.569 1.15-10.85 2.641-15.36-4.23 1.541-7.5 4.102-11.761 5.041-9.529 2.101-18.84-3.021-20.88-10.561-2.08-7.689.62-14.852 3.36-20.641-3.5 1.4-8.71 2.82-12.96 1.199-8.67-3.299-12.61-19.789-2.4-32.64-8.46-1.409-16.54-18.38 2.4-39.6-8.15 12.81-11.68 29.83-3.36 31.92 8.16 2.05 13.181-3.78 17.28-7.44 8.02-7.17 17.58-16.07 27.12-19.68 1.66-.6 2.35-.69 3.6-.96-.92-4.62-2.14-10.78-.96-16.56.95-4.66 6.28-13.1 9.12-13.68.94-.19 3.608 1.375 5.521 3.36 1.011 1.049 2.114 2.141 3.359 3.12-.69-5.978-3.54-29.66-6-33.36 1.271-3.05 2.641-6 4.32-8.64 2.893 7.91 5.077 14.287 8.879 23.28-2.129.13-2.227-1.651-4.08-1.92 1.073 5.509 1.56 11.21 2.16 15.6.48 3.525.99 6.386 1.574 9.87 4.054 5.194 10.461 5.263 15.466 4.53-1.84-12.64-3.601-26.61-5.521-39.6-.5-3.39-1.529-7.23-2.88-9.6 1.601-2.64 2.92-5.56 4.319-8.4 3.208 8.024 4.66 13.301 8.881 23.28-1.477-.809-1.752-1.603-3.841-1.92.649 9.38 3.101 21.14 4.08 30.72.29 2.84-.16 4.69 1.92 5.52 5.149-.77 12.181-1.74 16.801-3.84-1.021-5.75-1.427-8.678-2.641-16.08-3.75-1.13-8.184-1.697-12-2.64.88-2.72 2.71-4.49 3.601-7.2 2.554-1.497 4.639-2.257 7.199-2.4-.323-4.824-.729-9.47-1.68-13.92-.341-1.57-1.971-3.3-1.921-4.8 1.28-2.655 2.123-5.755 3.841-8.16 3.946 8.898 5.722 13.203 10.08 22.56-1.771-.839-2.856-1.811-4.08-1.92.067 2.09.449 4.65.72 6.72 8.33 2.07 16.141 5.93 24.24 7.44-.385-6.033-.73-8.557-1.681-16.08-.88-.8-1.069-2.29-1.68-3.36 1.64-2.76 2.76-6.04 4.8-8.4 2.729 7.6 5.318 14.903 8.399 23.04-1.441-.575-2.789-1.262-3.84-1.68.317 3.116.837 5.753 1.199 8.64 9.07 3.21 23.091 3.55 32.641 4.8-1.93 2.87-3.05 6.55-5.521 8.88-7.72-2.32-18.21-1.97-25.199.72.76 5.501 1.512 11.857 2.159 16.56 8.16 1.04 16.439 1.96 23.28 4.32 3.29.47 6.62.9 9.12 2.16-1.381 2.46-1.54 6.14-3.36 8.16-3.311 0-5.71 1.03-8.399 2.16-6 2.53-12.899 4.86-18.239 7.68.67 14.891 3.939 33.939 1.199 48.72-.46 2.479-1.271 6.011-3.359 7.44.149-11.342-.46-22.801-1.439-33.36-.917-6.768-1.346-13.596-2.755-20.281-3.479 1.56-7.836 2.971-10.686 5.161 1.3 3.81 2.26 8.91 1.68 13.2-.1.479-.114.653-.116.935 1.355-1.55 2.484-2.645 4.917-2.616 1.46 2.119.93 5.25.479 7.921-.61 3.6-2.141 8.079-2.641 11.278-.521 3.371-.689 7.791 0 10.801.819 3.561 4.149 7.681 6.479 8.641 3.189 1.32 8.05.41 10.319-.96 5.301-3.2 8.2-10.42 8.641-18.239-.513-7.277-1.702-15.02-4.08-21.841 1.014-2.89 2.655-5.193 4.561-8.16 2.063 5.07 2.84 9.521 3.84 15.12 1.141 6.381 1.19 14.86 2.16 21.6.431 2.99 6.141 8.67 9.601 9.602 3.819 1.029 7.21-.352 9.12-1.682 4.17-2.898.3-8.389-1.439-13.198-2.382-6.654-4.766-13.289-5.789-20.283-.288-1.705-.77-3.104-2.132-4.196 1.57-2.11 1.74-5.621 3.36-7.681 3.34 4.66 7.34 8.66 9.359 14.64-1 .61-2.261-1.43-3.601-.479 1.721 9.777 3.91 10.909 5.521 16.8 1.12 4.12.971 9.89 0 14.88-1.47 7.51-7.061 12.67-16.08 10.801-6.899-1.431-10.54-8.351-13.199-14.399-2.684 5.957-4.471 11.996-10.322 16.081-4.542 2.549-10.837 1.883-13.201 0-7.761-5.101-8.271-18.81-5.761-29.761.466-2.295.828-3.823.481-5.52-1.42-.061-2.351 1.891-2.88 3.359-1.729 4.779-2.25 11.301-3.12 17.279-.859 5.92-3.529 14.91-6.479 17.041-6.359 4.6-11.174-4.495-12.416-7.505-9.391 5.371-21.748 9.942-30.544 20.946-1.279 1.409-2.88 2.729-3.601 3.84-.89 1.37-.479 2.46-.72 4.08-1.12 7.66-3.49 18.41 4.319 19.92 2.721.24 5.62-.26 7.2-.96 3.64-1.62 7.62-4.939 10.8-7.92 10.21-9.591 17.931-23.58 31.2-29.04 3.8-1.142 10.46-1.562 14.159 0 .881-.801.939-2.42 2.641-2.399 4.801 6.399 13.968 11.16 25.218 10.319-1.985-2.802-4.035-6.842-6.258-10.562-1.12-1.167-1.979-1.379-2.64-2.398.899-2.62 1.159-5.88 1.92-8.641 3.977 4.105 8.209 8.553 12.481 12-1 .801-2.71-.609-3.36.479 2.047 3.222 3.401 5.527 4.801 7.921.659 1.127 4.59-1.051 6.72-1.921 5.561-2.26 10.86-5.819 14.4-9.601 18.462-19.339 20.059-71.939.72-104.64-8.439-15.95-19.55-27.41-32.88-37.68-16.953-12.21-36.663-19.905-57.361-21.6-12.971-.65-38.641 3.12-39.841 4.08-29.02 5.24-53.72 29.84-59.52 39.12-9.24 12.606-15.918 26.224-20.16 41.28-.94 3.73-2.07 7.19-2.64 11.04-2.92 19.71.17 40.62 5.04 54.96 6.89 17.3 17.109 33.46 32.88 45.12 22.515 17.315 50.736 28.709 76.801 24.24 7.185-1.27 18.777-6.26 27.121-10.801v4.08c1.28 2.851 5.439 3.721 8.641 2.641 3.149-1.07 7.521-4.98 8.88-8.16 1.261-2.939.189-9.48 4.561-7.439-.63 4.069 1.431 7.271 4.561 7.439 3.58.189 6.04-1.964 6.96-5.521.866-3.457-1.113-9.976 1.681-10.318.98-.12 1.529 2.97 2.64 4.08.851.85 1.61.63 2.16 1.68 3.16 1.34 8.34 1.51 11.04 0 3.521-1.97.319-4.99-1.2-6.96-1.319-1.7-1.899-2.568-3.6-4.319-5.158.934-10.188.26-14.881 0 .181 3.83.271 9.869-3.119 11.521-8.729-2.552-13.881-8.681-15.36-18.479-2.47-1.431-8.279-1.721-11.76-1.201-9.081 2.603-15.833 10.645-21.599 17.762-4 4.25-8.101 8.579-12.239 12.238-2.19 1.94-4.83 4.07-7.44 5.041-9.189 3.41-15.81-2.541-17.039-10.319-.461-2.899-.37-6.479 0-9.12.329-2.32 1.049-4.632 1.199-6.721-2.684 3.47-4.68 6.66-7.68 9.119-2.27 1.858-5.57 3.608-8.88 4.078zm166.74-69.599c-2.357 13.286-6.168 26.49-14.16 37.679-6.199 7.59-14.72 12.879-24.479 17.039 1.08 4.83 3.62 12.391 1.439 18.48-1.819 1.811-3.29 3.949-6.239 4.318-4.53.57-8.87-2.358-12-3.84-.9 6.36-3.601 14.521-11.28 13.92-3.279-.26-4.17-2.438-6.479-4.08-1.8 1.541-2.369 4.49-4.08 6.722-2.399 3.13-8.319 7.64-14.399 5.278-2.899-1.129-4.09-3.92-5.279-7.198-24.955 13.897-52.052 11.048-69.359 4.319-7.721-2.801-15.171-6.271-22.08-10.319-18.042-10.66-33.342-25.21-43.2-43.68a135.267 135.267 0 0 1-11.759-30.959c-3.511-17.109-2.87-37.261.96-55.44 2.149-4.97 2.97-10.23 5.04-15.12 5.92-13.95 13.47-26.11 23.279-36.96 6.23-6.89 13.311-13.72 21.12-18.96 15.333-10.507 32.29-17.445 50.64-20.16 26.598-3.674 42.161-.917 65.04 6.24 30.179 13.096 52.698 35.366 67.68 65.04 9.843 21.748 11.773 44.137 9.595 67.681zm-64.74-45.6c-3.892-1.62-6.43-1.591-9.48-2.406-.003 1.872.239 3.093.361 5.286 3.039-.96 6.399-1.6 9.119-2.88zm-15.84 5.759c-.526-3.723-.58-5.854-1.439-9.12-8.082-1.269-14.601-2.122-23.544-1.852.196 3.27.906 9.036 1.021 12.24 2.886 2.38 4.502 3.598 6.448 6.05 6.156-2.238 11.493-4.938 17.514-7.318zm-2.399-19.919c-.746-3.255-.657-6.505-1.663-13.081-6.221 1.91-16.783 5.905-23.059 8.397.09 1.11.413 2.594.722 3.484 7.609-.24 16.71 1.14 24 1.2zm-3.601-21.72c-6.399-1.95-13.008-3.715-19.439-5.642-.899.3-.84 1.56-1.681 1.92-.38-.59-1.801-.586-2.28-.486.64 3.07 1.2 8.827 1.801 12.726 7.093-2.473 14.668-5.317 21.599-8.518zm-7.92 81.958c.815-4.104 2.981-8.034 4.875-11.57-.105-.128-.494-.128-1.16-.143-4.128-1.057-6.835-1.328-8.755-4.368-.939-1.489-.779-3.5-1.92-5.28-.45.03-.801.16-.96.479 1.214 9.488 2.212 18.994 1.439 28.562-.865 5.103-2.232 7.681-4.08 11.278-.641 1.271-3.155 4.425-4.319 5.521.597 1.547 2.939 3.53 6 3.36 5.558-3.555 6.444-11.197 7.441-17.28.569-3.547.649-7.217 1.439-10.559zm-10.559 8.162c.181-2.939-.38-7.28-.721-11.041-.587-5.153-.78-10.374-2.033-15.423-.08 0-.767.304-.847.304-28.149 13.939-44.431 39.729-69.6 56.641-1.771 4.979-6.93 26 10.56 23.04 5.71-.971 10.66-7.86 14.399-12.24 4.11-4.819 7.729-10.68 12.24-14.399 4.12-3.399 8.45-5.521 12.479-7.92 4.17-2.479 8.641-4.391 13.2-7.439-.091-2.84-.721-6.67-.721-10.08 0-3.315.379-6.662 1.029-8.994.086-.309.838-.237 1.131-.365-.71 6.029.021 12.379 1.199 17.279 3.704-1.574 7.393-4.533 7.685-9.363zm-11.282-31.201c2.321-1.657 5.834-3.422 7.328-4.383.045-1.084-.523-2.784-.731-4.26-2.141-1.67-4.536-2.317-7.317-3.597-6.891-3.19-11.71-6.17-9.601-16.8 2.29-5.594 7.778-7.72 13.198-9.108-.445-1.123-.203-1.669-.481-2.095-4.17 1.425-12.797 3.863-17.036 4.963 1.38 11.98 3.439 31.1.479 42.24-.271 1.011-.771 2.841-2.16 2.881.061-15.351-2.38-30.26-4.08-44.641-5.609-.08-11.17-1.46-15.119-2.4.967 6.56 1.934 13.26 1.68 21.6-1.05 2.63-2.279 5.08-3.12 7.92-5.689 10.95-18.81 13.78-28.8 20.16-7.101 4.53-12.73 9.68-18.24 15.6-1.72 1.841-4.32 3.621-5.52 5.762-.811 1.439-2.551 5.92-2.771 6.85-.93 3.9-1.57 8.49-.35 12.59 2.689 7.062 13.02 6.562 20.399 4.32 20.94-7.609 33.771-27.681 50.4-41.04a486.135 486.135 0 0 1 21.842-16.562zm5.46-18.41a141.18 141.18 0 0 0-1.378-9.429c-2.21.65-9.42.15-9.84 2.64-.229 1.34 2.71 3.23 3.84 3.84 2.389 1.288 4.918 2.557 7.378 2.95zm-43.859 5.45c.931-3.07-.399-7.274-1.199-9.6-2.38 1.22-1.78 5.42-4.08 6.72-4.38-3.11-7.23-5.53-13.92-5.52-11.99.03-19.75 8.19-26.16 14.16-6.141 5.73-11.92 12.689-22.561 12.72-7.569 7.03-9.63 29.771 6.24 26.16 11.533-5.483 17.912-17.323 28.321-24.482 4.859-2.989 10.1-5.149 15.12-7.68 5.189-2.62 10.87-4.75 14.88-8.16 1.059-.908 3.219-3.867 3.359-4.318zm-1.44-11.279c-.822-5.522-1.393-11.14-2.25-16.792-.29-.785-1.047-1.25-2.07-2.168-2.05-1.84-5.88-8.52-8.88-8.4-2.229.09-7.43 5.74-6.72 13.44 1.93 8.48 13.99 9.011 19.92 13.92zm132.959 22.319c1.95 16.65 5.002 36.822-.239 50.16-1.889-30.248-6.642-60.23-11.008-90.192-.6-3.674-1.447-7.084-2.912-9.887 1.521-2.8 2.81-5.83 4.56-8.4 3.2 7.09 5.152 13.395 8.641 22.56-1 1.1-2.88-2.81-4.46-2.71.69 10.29 3.237 21.509 4.46 31.75.219 2.159.7 4.449.958 6.719zm-.239 82.56a29.453 29.453 0 0 1-4.32 7.68c-3.29-1.18-5.489-3.47-8.159-5.279 1.159-3 3.149-5.17 4.319-8.159 3.189 1.448 5.95 3.328 8.16 5.758zm-111.359-76.799c.84 3.31-2.971 6.108-4.32 8.64-3.101-1.539-5.601-3.68-8.399-5.521 1.189-3.369 3.229-5.89 5.04-8.64 1.107 1.089 7.229 3.74 7.679 5.521zm-3.12-15.841c.39 2.91-3.189 5.57-4.32 8.16-3.18-1.46-5.649-3.63-8.399-5.52.91-3.33 3.141-5.34 4.319-8.4 1.919.561 8.139 3.871 8.4 5.76zm-51.601 42.72c2.76 2.12 6.58 3.18 8.16 6.479-1.25 2.99-2.729 5.75-4.56 8.16-2.66-2.14-5.971-3.63-8.4-6 1.08-2.449 3.2-5.919 4.8-8.639z"/></svg>